<svg width="25" height="25" viewBox="0 0 25 25" fill="#707070" xmlns="http://www.w3.org/2000/svg">
<path d="M20.6914 6.36169C20.6914 4.19369 17.0284 2.36169 12.6914 2.36169C8.35441 2.36169 4.69141 4.19369 4.69141 6.36169V8.36169C4.69141 10.5297 8.35441 12.3617 12.6914 12.3617C17.0284 12.3617 20.6914 10.5297 20.6914 8.36169V6.36169ZM12.6914 19.3617C8.35441 19.3617 4.69141 17.5297 4.69141 15.3617V18.3617C4.69141 20.5297 8.35441 22.3617 12.6914 22.3617C17.0284 22.3617 20.6914 20.5297 20.6914 18.3617V15.3617C20.6914 17.5297 17.0284 19.3617 12.6914 19.3617Z" fill="#707070"/>
<path d="M20.6914 10.3617C20.6914 12.5297 17.0284 14.3617 12.6914 14.3617C8.35441 14.3617 4.69141 12.5297 4.69141 10.3617V13.3617C4.69141 15.5297 8.35441 17.3617 12.6914 17.3617C17.0284 17.3617 20.6914 15.5297 20.6914 13.3617V10.3617Z" fill="#707070"/>
</svg>
